<?xml version="1.0" standalone="no"?>
<!DOCTYPE svg PUBLIC "-//W3C//DTD SVG 20010904//EN"
 "http://www.w3.org/TR/2001/REC-SVG-20010904/DTD/svg10.dtd">
<svg version="1.0" xmlns="http://www.w3.org/2000/svg"
 width="1132.000000pt" height="1132.000000pt" viewBox="0 0 1132.000000 1132.000000"
 preserveAspectRatio="xMidYMid meet">
<metadata>
Created by potrace 1.11, written by Peter Selinger 2001-2013
</metadata>
<g transform="translate(0.000000,1132.000000) scale(0.100000,-0.100000)"
fill="#000000" stroke="none">
<path d="M0 5659 l0 -2970 1513 4 c831 2 1526 7 1542 10 17 3 55 9 85 12 30 3
66 7 80 10 14 3 41 7 60 10 51 7 241 43 315 60 235 53 403 107 550 179 61 30
111 53 113 51 2 -1 5 -15 8 -31 3 -16 8 -38 11 -49 3 -11 7 -29 9 -40 1 -11
10 -51 19 -90 21 -87 23 -97 24 -112 1 -10 189 -13 904 -13 l904 0 43 103 c24
56 55 127 69 157 13 30 25 57 25 60 2 8 164 387 197 458 16 35 29 69 29 76 0
8 7 19 15 26 9 7 14 15 11 17 -4 4 33 95 59 143 7 14 13 27 13 30 -1 3 9 26
20 51 12 25 30 68 40 95 11 27 34 79 51 116 17 36 31 69 31 72 0 3 11 29 24
58 13 29 36 82 51 118 15 36 37 85 48 110 10 25 25 59 32 75 220 509 228 528
230 535 4 19 46 102 49 99 2 -2 16 -33 31 -69 15 -36 35 -81 43 -100 9 -19 16
-37 17 -40 4 -12 34 -81 85 -195 10 -22 37 -85 60 -140 23 -55 50 -119 61
-142 62 -138 98 -222 104 -243 1 -7 43 -98 62 -135 8 -16 16 -37 18 -45 3 -14
67 -162 116 -267 10 -24 19 -45 19 -47 0 -3 14 -34 30 -69 17 -36 30 -68 30
-71 0 -3 11 -29 24 -58 57 -127 99 -225 171 -393 42 -99 82 -191 88 -205 5
-14 11 -27 12 -30 1 -3 16 -38 35 -78 l33 -72 900 2 900 3 23 100 c13 55 26
115 29 134 3 18 7 36 10 40 2 4 6 20 9 36 6 30 23 117 31 150 2 11 11 52 20
90 9 39 18 79 20 90 9 36 16 80 16 87 0 4 6 25 14 47 7 22 11 41 9 44 -3 2 0
15 5 29 5 14 12 42 15 64 4 21 9 47 12 56 6 21 15 58 18 78 1 8 5 24 9 35 3
11 9 36 12 55 3 19 13 64 21 100 9 36 17 74 20 85 3 19 9 46 19 90 5 25 34
153 40 180 3 11 8 34 10 50 3 17 8 37 10 45 2 8 6 26 9 40 2 14 10 48 16 75 6
28 13 57 15 65 2 8 9 38 15 65 6 28 14 61 16 74 7 34 26 122 69 311 20 91 39
179 42 195 7 43 11 60 13 60 2 0 5 16 14 60 8 42 11 57 36 165 12 52 23 104
26 115 2 11 6 31 9 45 3 14 7 34 9 45 3 11 9 40 16 65 6 25 13 54 15 65 9 52
44 212 49 225 3 8 7 29 10 45 3 17 7 39 10 50 7 27 37 165 41 190 3 16 158
715 170 765 2 8 13 59 25 114 12 54 24 108 26 120 3 11 7 32 10 46 3 14 7 33
10 42 3 10 7 28 10 40 2 13 6 32 8 43 15 70 58 263 62 278 7 28 13 59 24 117
6 30 14 62 17 70 3 8 7 24 9 35 2 15 79 368 99 455 9 39 35 162 35 166 0 2
-2547 4 -5660 4 l-5660 0 0 -2971z"/>
</g>
</svg>
